# xmcd
#
# Track frame offsets:
#	150
#	16538
#	31390
#	45673
#	61055
#	78013
#	93998
#	107255
#	125130
#	142895
#	158225
#	171240
#	190273
#	204075
#	220803
#	234485
#	246843
#	261450
#	275935
#	291455
#	309233
#
# Disc length: 4353 seconds
#
# Revision: 2
# Processed by: cddbd v1.5.2PL0 Copyright (c) Steve Scherf et al.
# Submitted via: audiograbber 1.83.01
#
DISCID=2110ff15
DTITLE=BLES BRIDGES - SWEEF SOOS 'N AREND
DYEAR=1900
DGENRE=Freestyle
TTITLE0=SWEEF SOOS 'N AREND
TTITLE1=RUITER VAN DIE WINDJIE
TTITLE2=WAS EK MAAR 'N DIGTER
TTITLE3=DEUR DIE JARE HEEN
TTITLE4=DANNY BOY
TTITLE5='N PRAGTIGE PRENTJIE
TTITLE6=JOU HART WAS WEER MYNE
TTITLE7=NOG 'N NUWE DAG
TTITLE8=NET VIR JOU
TTITLE9=EERSTE LIEFDE
TTITLE10=STILLE RIVIER STROOM
TTITLE11=BLY BY MY
TTITLE12='N DROOM NIE GENOEG VIR MY
TTITLE13=HEY GAAN JY WEER
TTITLE14='N DUISEND LIGGIES
TTITLE15=HEIDI
TTITLE16=DUITSWES WALS
TTITLE17=SWAELTJIE
TTITLE18=NIE LANK GELEDE
TTITLE19=WARE LIEFDE
TTITLE20=MY SILWER AREND
EXTD=
EXTT0=
EXTT1=
EXTT2=
EXTT3=
EXTT4=
EXTT5=
EXTT6=
EXTT7=
EXTT8=
EXTT9=
EXTT10=
EXTT11=
EXTT12=
EXTT13=
EXTT14=
EXTT15=
EXTT16=
EXTT17=
EXTT18=
EXTT19=
EXTT20=
PLAYORDER=
